<?xml version="1.0" encoding="UTF-8"?>
<svg version="1.1" xmlns="http://www.w3.org/2000/svg" width="512" height="512">
<path d="M0 0 C1.01790619 0.00215515 2.03581238 0.0043103 3.08456421 0.00653076 C17.69363523 0.05620146 32.02575853 0.30709809 46.375 3.3125 C47.34985352 3.51117676 48.32470703 3.70985352 49.32910156 3.91455078 C97.7109774 14.03517194 141.69928269 35.9516877 177.375 70.3125 C178.3640332 71.26068604 178.3640332 71.26068604 179.37304688 72.22802734 C188.86130305 81.37247479 197.6012044 90.66984009 205.375 101.3125 C206.23306152 102.46355017 207.09113451 103.61459177 207.94921875 104.765625 C213.98736829 112.95680614 219.34595521 121.47054105 224.375 130.3125 C224.73948242 130.94430176 225.10396484 131.57610352 225.47949219 132.22705078 C247.08534998 169.97532572 256.85198095 212.74189997 256.6875 255.9375 C256.68534485 256.95540619 256.6831897 257.97331238 256.68096924 259.02206421 C256.63129854 273.63113523 256.38040191 287.96325853 253.375 302.3125 C253.07698486 303.77478027 253.07698486 303.77478027 252.77294922 305.26660156 C242.65232806 353.6484774 220.7358123 397.63678269 186.375 433.3125 C185.74287598 433.97185547 185.11075195 434.63121094 184.45947266 435.31054688 C175.31502521 444.79880305 166.01765991 453.5387044 155.375 461.3125 C154.22394983 462.17056152 153.07290823 463.02863451 151.921875 463.88671875 C143.73224019 469.92427396 135.22961724 475.30707302 126.375 480.3125 C125.66778809 480.7146875 124.96057617 481.116875 124.23193359 481.53125 C101.09654164 494.5566741 75.92537591 503.30551461 49.9375 508.625 C49.21860596 508.77235596 48.49971191 508.91971191 47.7590332 509.0715332 C33.08339502 511.86090125 18.55831162 512.66142619 3.64770508 512.62817383 C0.70811513 512.6250221 -2.2304558 512.64854926 -5.16992188 512.67382812 C-18.54306192 512.71848737 -31.43916711 511.51301542 -44.625 509.3125 C-46.33055054 509.03031616 -46.33055054 509.03031616 -48.07055664 508.74243164 C-91.33802759 500.97044532 -132.38793216 480.98345309 -165.625 452.3125 C-166.37007813 451.67828125 -167.11515625 451.0440625 -167.8828125 450.390625 C-181.38779833 438.57948485 -194.05918743 425.82889772 -204.625 411.3125 C-205.48149066 410.16255169 -206.33826433 409.01281411 -207.1953125 407.86328125 C-213.23534209 399.67315742 -218.61867614 391.16870382 -223.625 382.3125 C-224.0271875 381.60528809 -224.429375 380.89807617 -224.84375 380.16943359 C-237.8691741 357.03404164 -246.61801461 331.86287591 -251.9375 305.875 C-252.08485596 305.15610596 -252.23221191 304.43721191 -252.3840332 303.6965332 C-255.35789088 288.05024391 -255.99800362 272.57681954 -255.9375 256.6875 C-255.93534485 255.66959381 -255.9331897 254.65168762 -255.93096924 253.60293579 C-255.88129854 238.99386477 -255.63040191 224.66174147 -252.625 210.3125 C-252.42632324 209.33764648 -252.22764648 208.36279297 -252.02294922 207.35839844 C-241.90232806 158.9765226 -219.9858123 114.98821731 -185.625 79.3125 C-184.99287598 78.65314453 -184.36075195 77.99378906 -183.70947266 77.31445312 C-174.56502521 67.82619695 -165.26765991 59.0862956 -154.625 51.3125 C-153.47394983 50.45443848 -152.32290823 49.59636549 -151.171875 48.73828125 C-142.98224019 42.70072604 -134.47961724 37.31792698 -125.625 32.3125 C-124.91778809 31.9103125 -124.21057617 31.508125 -123.48193359 31.09375 C-100.34654164 18.0683259 -75.17537591 9.31948539 -49.1875 4 C-48.46860596 3.85264404 -47.74971191 3.70528809 -47.0090332 3.5534668 C-31.36274391 0.57960912 -15.88931954 -0.06050362 0 0 Z " fill="#F98026" transform="translate(255.625,-0.3125)"/>
<path d="M0 0 C1.08225357 -0.00855011 1.08225357 -0.00855011 2.18637085 -0.01727295 C3.71098379 -0.02669011 5.23561678 -0.03324383 6.76025391 -0.03710938 C9.05799363 -0.04675766 11.35481569 -0.07778707 13.65234375 -0.109375 C29.82566465 -0.22627498 43.13948785 3.35861326 55.140625 14.7578125 C64.42326011 24.54052223 70.55330092 36.6775181 70.60810852 50.29328918 C70.61526382 51.51706772 70.62241913 52.74084625 70.62979126 54.00170898 C70.63263111 55.34985326 70.63534289 56.69799781 70.63793945 58.04614258 C70.64420904 59.47230696 70.65085627 60.89846973 70.65785217 62.32463074 C70.67883209 66.99896113 70.68924729 71.67329164 70.69921875 76.34765625 C70.70326825 77.95996302 70.70738523 79.57226961 70.71156883 81.18457603 C70.73060535 88.75898797 70.7448409 96.33339024 70.7531808 103.90782148 C70.76295474 112.63927388 70.78928469 121.37047289 70.82968169 130.10183603 C70.85987048 136.85954525 70.8746522 143.61718193 70.87796181 150.37495726 C70.88030867 154.40725481 70.88922174 158.43928115 70.91442299 162.47150612 C70.93775812 166.26617582 70.94191539 170.06039676 70.93166161 173.85511971 C70.93116749 175.24341579 70.93745124 176.63173439 70.95121765 178.01996231 C71.02895626 186.32765892 71.0497157 193.41955236 64.97815418 199.74885273 C60.49997333 203.69424876 56.6612811 204.62778395 50.875 204.54296875 C46.70893674 203.95648412 43.45708628 202.12228495 40.4609375 199.203125 C37.0909037 194.12521851 35.96366295 190.93497878 36.00683594 184.70727539 C36.00625183 183.99424255 36.00566772 183.28120972 36.00506592 182.54656982 C36.00782957 180.21412685 36.03883668 177.88299803 36.0703125 175.55078125 C36.07778109 173.92411497 36.0834711 172.29743964 36.08746338 170.67076111 C36.10267128 166.40773288 36.14191041 162.14525744 36.1862793 157.88244629 C36.23456716 152.75795667 36.25278916 147.63328129 36.27609253 142.50862885 C36.31476526 134.73974414 36.39145128 126.97207024 36.4609375 119.203125 C19.3009375 119.203125 2.1409375 119.203125 -15.5390625 119.203125 C-15.50425781 124.33101563 -15.46945312 129.45890625 -15.43359375 134.7421875 C-15.4182602 137.99610518 -15.403818 141.24997814 -15.39257812 144.50390625 C-15.37466362 149.66562177 -15.35349935 154.82717723 -15.31274414 159.98876953 C-15.28008291 164.15144985 -15.26219524 168.31395845 -15.25443077 172.47675705 C-15.24889938 174.06274492 -15.23809784 175.64872369 -15.22187233 177.23463821 C-15.20000759 179.46082927 -15.19709927 181.68631603 -15.19848633 183.91259766 C-15.19182449 185.17834625 -15.18516266 186.44409485 -15.17829895 187.74819946 C-15.65842286 192.34620379 -17.12043922 195.69603524 -20.29296875 199.06640625 C-20.88980469 199.54464844 -21.48664063 200.02289063 -22.1015625 200.515625 C-22.70097656 201.00675781 -23.30039062 201.49789062 -23.91796875 202.00390625 C-27.45990823 204.62408798 -30.55424632 204.66156192 -34.8671875 204.60546875 C-39.42479131 203.91916291 -42.5781535 201.66829362 -45.5390625 198.203125 C-50.17467823 190.97237403 -50.11041455 184.40894966 -50.05664062 176.00708008 C-50.06206868 174.57872812 -50.06919516 173.15038176 -50.07788086 171.7220459 C-50.09604452 167.86005881 -50.08907359 163.99850143 -50.07636452 160.13650727 C-50.06619072 156.0786798 -50.07564321 152.0208875 -50.08190918 147.96305847 C-50.08917705 141.14482065 -50.07962492 134.32675636 -50.06054688 127.50854492 C-50.03882338 119.65481176 -50.04579985 111.80149476 -50.0678525 103.94777185 C-50.08608349 97.18139772 -50.08852614 90.41514795 -50.07809782 83.64875716 C-50.07189932 79.61806702 -50.07092481 75.58757151 -50.08424377 71.5568943 C-50.09591283 67.7604646 -50.0875783 63.9645634 -50.06466675 60.16819 C-50.05696654 58.132311 -50.06864367 56.09638661 -50.08117676 54.06053162 C-49.93901278 38.39139588 -45.00565263 25.79817799 -34.2265625 14.390625 C-24.54949842 5.17515852 -13.33013154 0.08289712 0 0 Z " fill="#FEFEFD" transform="translate(356.5390625,153.796875)"/>
<path d="M0 0 C6.55482627 5.15022064 10.15740243 13.69395182 13.78833008 21.03271484 C14.50412231 22.46123276 14.50412231 22.46123276 15.234375 23.91860962 C16.79357167 27.03402036 18.34418371 30.15361496 19.89453125 33.2734375 C20.98168466 35.45080525 22.06931317 37.62793585 23.15739441 39.80484009 C25.42784888 44.35033558 27.69437631 48.89775882 29.95776367 53.44677734 C32.86208443 59.28381447 35.77342051 65.11731597 38.68732166 70.94957542 C40.92895091 75.43698359 43.16831301 79.92551967 45.40683556 84.4144783 C46.48019855 86.56690678 47.55393925 88.71914695 48.62806129 90.87119675 C50.12368999 93.86930764 51.61660096 96.86875503 53.10864258 99.86865234 C53.55380722 100.76009949 53.99897186 101.65154663 54.45762634 102.57000732 C54.8626236 103.38571198 55.26762085 104.20141663 55.68489075 105.0418396 C56.03751889 105.75007055 56.39014704 106.45830151 56.75346088 107.187994 C57.625 109.0625 57.625 109.0625 58.625 112.0625 C58.62642502 110.80018051 58.62785004 109.53786102 58.62931824 108.23728943 C58.64599663 96.33393198 58.68879644 84.43091602 58.75709057 72.52773952 C58.79136313 66.40833586 58.81647105 60.28918192 58.82055664 54.16967773 C58.82483888 48.26260721 58.85329658 42.35610009 58.89843178 36.4492054 C58.91140896 34.19703517 58.91571371 31.94479753 58.91115379 29.69259453 C58.90624965 26.53459921 58.93233406 23.37825163 58.96557617 20.22045898 C58.95695053 19.29185059 58.94832489 18.36324219 58.93943787 17.40649414 C59.04774536 11.25790365 60.38227625 7.5571517 64.625 3.0625 C69.00556089 -0.91056686 72.51573953 -1.52394661 78.234375 -1.25 C84.39906043 -0.44415877 87.61533463 2.78321547 91.42578125 7.34375 C94.0461074 11.0992663 93.75531067 14.70349501 93.76544189 19.13372803 C93.76841302 19.85822466 93.77138414 20.5827213 93.7744453 21.32917237 C93.78313553 23.76340518 93.78464082 26.19758883 93.78613281 28.63183594 C93.79076079 30.37459417 93.79578543 32.11735139 93.80117798 33.86010742 C93.81430678 38.59991766 93.82074799 43.33971372 93.82518864 48.0795393 C93.82811887 51.04068124 93.83222361 54.0018193 93.83669281 56.96295929 C93.85036963 66.2272864 93.86003512 75.49160465 93.8638947 84.75594115 C93.86837465 95.45077263 93.88591884 106.14547625 93.9148953 116.84026885 C93.93651355 125.10619041 93.94659908 133.372076 93.94793582 141.63802552 C93.94898384 146.57513736 93.95489085 151.51212904 93.97275543 156.44921112 C93.98923834 161.09492777 93.99139054 165.74043396 93.98261642 170.38616943 C93.98184614 172.08932306 93.98618763 173.792488 93.99607468 175.4956131 C94.00880248 177.82510423 94.00291328 180.15385095 93.99249268 182.4833374 C93.99469252 184.43676371 93.99469252 184.43676371 93.9969368 186.42965317 C93.31379074 193.1021981 90.79954591 197.66413598 85.625 202.0625 C82.35093622 203.15385459 79.75835827 203.29948523 76.3125 203.375 C75.20261719 203.41238281 74.09273438 203.44976562 72.94921875 203.48828125 C68.72382327 202.94707313 66.94150149 201.74782028 63.625 199.0625 C61.74979361 196.40838412 60.34815993 193.57582699 58.92626953 190.65893555 C58.50261171 189.82221911 58.0789539 188.98550268 57.64245796 188.12343121 C56.74402737 186.34408578 55.8527547 184.56111054 54.9681778 182.77483749 C53.66229637 180.13781418 52.33829805 177.51078989 51.00775146 174.88613892 C48.25241848 169.4410195 45.52767096 163.98088085 42.8046875 158.51953125 C41.8102457 156.52877615 40.81562343 154.53811119 39.8208313 152.54753113 C37.23812094 147.37834282 34.65781752 142.20795691 32.07806396 137.03729248 C29.43113826 131.73310111 26.78186829 126.4300809 24.1328125 121.12695312 C18.96128438 110.77326152 13.79230569 100.4182995 8.625 90.0625 C8.62357498 91.3100708 8.62214996 92.5576416 8.62068176 93.84301758 C8.6039954 105.61361995 8.56117126 117.38387733 8.49290943 129.15429688 C8.45865296 135.20529108 8.43353145 141.25603315 8.42944336 147.30712891 C8.42515767 153.14936778 8.39667135 158.99103802 8.35156822 164.83309937 C8.33860207 167.05932297 8.33428238 169.28561465 8.33884621 171.51187134 C8.34375822 174.63613911 8.31763123 177.75874881 8.28442383 180.8828125 C8.29304947 181.79847488 8.30167511 182.71413727 8.31056213 183.657547 C8.19916595 189.93018671 6.70345298 194.23315474 2.625 199.0625 C-1.74894782 202.8211517 -6.14292879 203.83222928 -11.87890625 203.5703125 C-17.79094131 202.36755106 -21.16726552 198.84350956 -24.45446777 193.99597168 C-27.73918159 187.2258218 -26.9312194 179.38474483 -26.89257812 172.03320312 C-26.89800356 170.30117709 -26.90512859 168.56915568 -26.91381836 166.83714294 C-26.93200452 162.14909671 -26.92500368 157.46140383 -26.91230202 152.77335167 C-26.90214992 147.85902351 -26.91157383 142.9447249 -26.91784668 138.03039551 C-26.92511665 129.77883492 -26.91555245 121.52741771 -26.89648438 113.27587891 C-26.8747169 103.74636167 -26.88176873 94.2171868 -26.90379 84.68767786 C-26.92196252 76.49464829 -26.92449326 68.30172157 -26.91403532 60.10867834 C-26.90781058 55.22022741 -26.90693668 50.33193721 -26.92018127 45.4434967 C-26.93176613 40.84685869 -26.92366604 36.25066057 -26.90060425 31.6540699 C-26.89533121 29.97069592 -26.89680681 28.28728469 -26.90565491 26.6039257 C-26.98970383 8.98433093 -26.98970383 8.98433093 -20.85334015 2.43956757 C-15.16960173 -2.85481062 -6.99645965 -1.94346101 0 0 Z " fill="#FEFDFD" transform="translate(111.375,154.9375)"/>
<path d="M0 0 C5.23219836 2.51920662 9.38537029 6.77074058 12 12 C12.09597402 13.3648427 12.13095541 14.73423466 12.13422108 16.1024437 C12.13867892 16.9666077 12.14313676 17.83077171 12.14772969 18.7211225 C12.14754533 19.67615928 12.14736097 20.63119606 12.14717102 21.61517334 C12.15084771 22.62536978 12.1545244 23.63556622 12.1583125 24.67637467 C12.16938279 28.08340847 12.17319883 31.49041181 12.17700195 34.89746094 C12.18326405 37.33134051 12.18991062 39.76521913 12.19691467 42.19909668 C12.21616695 49.51907905 12.22674657 56.83905892 12.23564246 64.15905893 C12.24002418 67.60512722 12.24539131 71.05119397 12.25063133 74.49726105 C12.26764481 85.9511521 12.28213918 97.40504219 12.28938007 108.85894394 C12.29129001 111.83206941 12.29321033 114.80519487 12.29516602 117.77832031 C12.29564976 118.51728791 12.2961335 119.25625551 12.2966319 120.01761606 C12.3049329 131.98949036 12.33027043 143.96126476 12.36274669 155.93309543 C12.39580877 168.22094458 12.41382808 180.50874295 12.41702431 192.79663682 C12.41919026 199.69720798 12.42795106 206.59763348 12.45348549 213.49816132 C12.47744805 219.98895283 12.48102348 226.47955323 12.47072411 232.97038269 C12.47022718 235.35445781 12.47659342 237.73854559 12.49028015 240.12258148 C12.50790578 243.37433556 12.50093822 246.62513826 12.48774719 249.87689209 C12.49871644 250.82300598 12.50968568 251.76911987 12.52098733 252.74390388 C12.45546572 259.42209848 11.13356456 262.84394574 6.3671875 267.64453125 C0.73999277 272.04906325 -2.90190998 272.77652449 -10 272 C-15.2287958 269.43493036 -19.3776477 265.2447046 -22 260 C-22.09597402 258.6351573 -22.13095541 257.26576534 -22.13422108 255.8975563 C-22.13867892 255.0333923 -22.14313676 254.16922829 -22.14772969 253.2788775 C-22.14754533 252.32384072 -22.14736097 251.36880394 -22.14717102 250.38482666 C-22.15084771 249.37463022 -22.1545244 248.36443378 -22.1583125 247.32362533 C-22.16938279 243.91659153 -22.17319883 240.50958819 -22.17700195 237.10253906 C-22.18326405 234.66865949 -22.18991062 232.23478087 -22.19691467 229.80090332 C-22.21616695 222.48092095 -22.22674657 215.16094108 -22.23564246 207.84094107 C-22.24002418 204.39487278 -22.24539131 200.94880603 -22.25063133 197.50273895 C-22.26764481 186.0488479 -22.28213918 174.59495781 -22.28938007 163.14105606 C-22.29129001 160.16793059 -22.29321033 157.19480513 -22.29516602 154.22167969 C-22.29564976 153.48271209 -22.2961335 152.74374449 -22.2966319 151.98238394 C-22.3049329 140.01050964 -22.33027043 128.03873524 -22.36274669 116.06690457 C-22.39580877 103.77905542 -22.41382808 91.49125705 -22.41702431 79.20336318 C-22.41919026 72.30279202 -22.42795106 65.40236652 -22.45348549 58.50183868 C-22.47744805 52.01104717 -22.48102348 45.52044677 -22.47072411 39.02961731 C-22.47022718 36.64554219 -22.47659342 34.26145441 -22.49028015 31.87741852 C-22.50790578 28.62566444 -22.50093822 25.37486174 -22.48774719 22.12310791 C-22.49871644 21.17699402 -22.50968568 20.23088013 -22.52098733 19.25609612 C-22.46456549 13.50538213 -21.69690854 10.44953962 -18 6 C-17.49339844 5.37351562 -16.98679688 4.74703125 -16.46484375 4.1015625 C-11.49685207 -0.70125298 -6.70566526 -1.17678846 0 0 Z " fill="#FEFEFE" transform="translate(261,120)"/>
<path d="M0 0 C1.14597656 -0.01546875 2.29195313 -0.0309375 3.47265625 -0.046875 C11.17368386 -0.01142723 17.32295583 0.74638951 22.96484375 6.31640625 C23.50818359 7.18072266 23.50818359 7.18072266 24.0625 8.0625 C24.44277344 8.64128906 24.82304687 9.22007812 25.21484375 9.81640625 C27.51370598 14.06880806 27.25326325 18.19902712 27.22265625 22.88671875 C27.22164917 23.61105103 27.22064209 24.3353833 27.21960449 25.08166504 C27.21437826 27.78362616 27.20041698 30.4855647 27.1875 33.1875 C27.166875 39.230625 27.14625 45.27375 27.125 51.5 C9.965 51.5 -7.195 51.5 -24.875 51.5 C-24.99875 45.415625 -25.1225 39.33125 -25.25 33.0625 C-25.30462402 31.16056885 -25.35924805 29.2586377 -25.41552734 27.29907227 C-25.67591693 12.02436588 -25.67591693 12.02436588 -20.54589844 6.07983398 C-19.99450195 5.55848877 -19.44310547 5.03714355 -18.875 4.5 C-18.02679688 3.6646875 -17.17859375 2.829375 -16.3046875 1.96875 C-10.94431576 -0.32680783 -5.76658431 -0.07731733 0 0 Z " fill="#F98B2B" transform="translate(365.875,187.5)"/>
</svg>
